<svg xmlns="http://www.w3.org/2000/svg" viewBox="0 0 100 100" width="100%" height="100%">
  <defs>
    <linearGradient id="dropGrad" x1="0%" y1="0%" x2="100%" y2="100%">
      <stop offset="0%" stop-color="#38bdf8"/>
      <stop offset="60%" stop-color="#0284c7"/>
      <stop offset="100%" stop-color="#0369a1"/>
    </linearGradient>
    <linearGradient id="chipGrad" x1="0%" y1="0%" x2="100%" y2="100%">
      <stop offset="0%" stop-color="#3b82f6"/>
      <stop offset="100%" stop-color="#1d4ed8"/>
    </linearGradient>
  </defs>
  <!-- Main Water Drop -->
  <path d="M50,10 C50,10 20,50 20,70 A30,30 0 0,0 80,70 C80,50 50,10 50,10 Z" fill="url(#dropGrad)"/>
  <!-- Highlight shine on droplet -->
  <path d="M35,45 C32,55 35,65 42,70" stroke="#ffffff" stroke-width="4" stroke-linecap="round" fill="none" opacity="0.6"/>
  <!-- AI Neural Circuit Node In Water Drop -->
  <circle cx="50" cy="58" r="7" fill="#ffffff"/>
  <circle cx="36" cy="72" r="4.5" fill="#bae6fd"/>
  <circle cx="64" cy="72" r="4.5" fill="#bae6fd"/>
  <circle cx="50" cy="40" r="3.5" fill="#bae6fd"/>
  <!-- Connections -->
  <line x1="50" y1="58" x2="36" y2="72" stroke="#ffffff" stroke-width="2.5"/>
  <line x1="50" y1="58" x2="64" y2="72" stroke="#ffffff" stroke-width="2.5"/>
  <line x1="50" y1="58" x2="50" y2="40" stroke="#ffffff" stroke-width="2"/>
</svg>
